<?xml version="1.0" encoding="utf-8"?>
<!-- Generator: Adobe Illustrator 27.5.0, SVG Export Plug-In . SVG Version: 6.00 Build 0)  -->
<svg version="1.1" id="Layer_1" xmlns="http://www.w3.org/2000/svg" xmlns:xlink="http://www.w3.org/1999/xlink" x="0px" y="0px"
	 viewBox="0 0 2000 2000" style="enable-background:new 0 0 2000 2000;" xml:space="preserve">
<rect style="fill:transparent;" width="2000" height="2000"/>
<g>
	<g>
		<g>
			<path style="fill:#fff;" d="M107.383,1606.289c-25.926-175.71,24.614-429.622,161.485-549.562
				c80.839-70.839,205.658-105.742,275.173-191.407c72.929-89.873,94.03-205.333,150.627-304.027
				c67.545-117.787,137.598-248.532,280.471-277.128c173.444-34.714,260.848,137.111,377.562,228.08
				c62.817,48.96,296.862,165.231,356.414,218.114c304.321,270.235,151.854,875.93,151.854,875.93s-177.349,60.66-244.24,60.442
				c-89.545-0.292-179.712,4.301-268.467-9.468c-67.526-10.475-130.384-18.516-198.532-18.459
				c-138.6,0.116-274.866,15.135-413.385,15.531c-84.967,0.242-165.87-11.559-248.943-21.294
				C379.66,1620.416,107.383,1606.289,107.383,1606.289z"/>
		</g>
	</g>
	<g>
		<g>
			<ellipse style="fill:#99E5FF;" cx="984.176" cy="1606.289" rx="876.793" ry="155.492"/>
		</g>
	</g>
	<g>
		<g>
			<ellipse style="fill:#64C8FF;" cx="1051.189" cy="1545.791" rx="561.478" ry="37.618"/>
		</g>
	</g>
	<g>
		<g>
			<ellipse style="fill:#64C8FF;" cx="1673.687" cy="1598.356" rx="100.313" ry="23.014"/>
		</g>
	</g>
	<g>
		<g>
			<ellipse style="fill:#64C8FF;" cx="402.51" cy="1598.873" rx="265.343" ry="65.302"/>
		</g>
	</g>
	<g>
		<g>
			<g>
				<g>
					<g>
						<path style="fill:#FFB454;" d="M387.306,1525.521c28.315,0,56.63,0,84.945,0c-6.264-27.046-6.264-54.953,0-81.999
							c-28.315,0-56.63,0-84.945,0C393.57,1470.568,393.57,1498.475,387.306,1525.521z"/>
					</g>
				</g>
			</g>
			<g>
				<g>
					<g>
						
							<rect x="387.306" y="1525.521" transform="matrix(-1 -1.224647e-16 1.224647e-16 -1 859.5578 3067.1411)" style="fill:#1A1A1A;" width="84.945" height="16.099"/>
					</g>
				</g>
			</g>
			<g>
				<g>
					<g>
						<path style="fill:#1A1A1A;" d="M404.491,1501.227c13.944-13.944,36.632-13.944,50.575,0l1.981-1.981
							c-15.036-15.036-39.5-15.036-54.537,0L404.491,1501.227z"/>
					</g>
				</g>
			</g>
		</g>
		<g>
			<g>
				<g>
					<g>
						<path style="fill:#FFB454;" d="M592.244,1428.925v96.596h148.638v-0.144c0-16.734-10.861-25.881-27.961-34.063
							c-19.745-9.448-46.358-18.683-51.952-62.39H592.244z"/>
					</g>
				</g>
			</g>
			<g>
				<g>
					<g>
						<rect x="592.244" y="1525.521" style="fill:#1A1A1A;" width="148.638" height="16.099"/>
					</g>
				</g>
			</g>
		</g>
		<g>
			<g>
				<polygon style="fill:#36C6FF;" points="672.042,829.176 684.544,1472.207 590.898,1473.884 544.83,1003.388 484.783,1475.172 
					382.604,1477.012 412.668,844.038 				"/>
			</g>
		</g>
		<g>
			<g>
				<g>
					<path style="fill:#FFBC99;" d="M475.563,493.798c0,0,96.352,25.616,89.288,3.781c-5.813-17.967-6.069-79.83-6.069-79.83
						l-81.154-14.939C477.628,402.809,498.086,462.401,475.563,493.798z"/>
				</g>
			</g>
		</g>
		<g>
			<g>
				<g>
					<path style="fill:#FF9800;" d="M600.965,517.924"/>
				</g>
			</g>
		</g>
		<g>
			<g>
				<g>
					<path style="fill:none;stroke:#E9B585;stroke-width:1.7519;stroke-linecap:round;stroke-miterlimit:10;" d="M571.856,567.427"
						/>
				</g>
			</g>
		</g>
		<g>
			<g>
				<path style="fill:#E29F81;" d="M558.781,425.362l1.514,39.344c0,0-49.352,6.435-67.304-24.884
					c-4.871-8.497-9.202-25.275-9.202-25.275L558.781,425.362z"/>
			</g>
		</g>
		<g>
			<g>
				<g>
					<path style="fill:#FFBC99;" d="M475.563,372.177c0,65.838,34.886,82.928,66.447,82.928c42.091,0,47.845-37.248,47.845-82.928
						c0-45.68-25.585-82.711-57.146-82.711S475.563,326.497,475.563,372.177z"/>
				</g>
			</g>
		</g>
		<g>
			<g>
				<g>
					
						<ellipse transform="matrix(0.9248 -0.3805 0.3805 0.9248 -109.4433 209.6299)" style="fill:#FFBC99;" cx="475.563" cy="381.665" rx="14.072" ry="22.595"/>
				</g>
			</g>
		</g>
		<g>
			<g>
				<path style="fill:#1A1A1A;" d="M577.914,325.701c1.147,1.71,5.326,11.819,6.128,13.716c2.592,6.128,4.86,17.645,4.86,17.645
					c0.953-12.188,2.557-30.926-1.747-41.203c-0.722-1.724-2.529,2.547-3.697,1.087c-2.313-2.891-6.819,0.754-10.29,2.041
					C559.867,323.921,575.406,321.964,577.914,325.701z"/>
			</g>
		</g>
		<g>
			<g>
				<path style="fill:#FF5C55;" d="M734.388,714.142c-11.343,18.442-61.308,22.233-67.365,20.119
					c-0.393-0.136-0.604-0.302-0.604-0.483l7.849,209.885l-266.3-0.653c0,0,9.232-112.565-1.341-222.826
					c-0.952-9.863-8.005-39.739-12.083-46.823c-20.995-36.431-27.188-83.073-19.635-105.729
					c11.827-35.51,48.862-70.733,85.49-91.743c3.353-1.933,6.706-3.731,10.029-5.392c4.728-2.402,9.41-4.516,13.987-6.329
					l5.664,0.06l57.91,0.619l7.658,0.076c2.16,0.801,4.275,1.601,6.374,2.402c4.758,1.843,9.365,3.716,13.82,5.649
					c1.087,0.453,2.16,0.936,3.232,1.405c6.495,2.885,12.718,5.891,18.79,9.078c17.34,9.123,33.456,19.756,51.143,33.32
					c29.906,22.943,52.517,56.701,66.036,91.622c0,0.015,0,0.015,0.015,0.03C718.317,616.871,744.945,685.474,734.388,714.142z"/>
			</g>
		</g>
		<g>
			<g>
				<path style="fill:#1A1A1A;" d="M492.991,336.251l-4.415,40.06c0,0-4.481-9.46-8.508-12.126c-4.026-2.666-9.646-4.07-9.646-4.07
					l-4.267-32.924L492.991,336.251z"/>
			</g>
		</g>
		<g>
			<g>
				<path style="fill:#1A1A1A;" d="M463.225,327.192c5.206,6.523,32.687,15.99,46.253,15.99c9.37,0,17.557-4.977,22.128-12.415
					c3.354,4.063,8.429,6.652,14.109,6.652c5.887,0,11.109-2.793,14.454-7.113c2.658,2.852,6.437,4.646,10.643,4.646
					c6.079,0,11.283-3.727,13.464-9.019c2.895,1.377,6.122,2.17,9.541,2.17c12.302,0,22.276-9.973,22.276-22.276
					c0-8.101-4.339-15.171-10.806-19.07c1.057-2.269,1.664-4.789,1.664-7.457c0-9.778-7.927-17.704-17.704-17.704
					c-0.841,0-1.662,0.079-2.472,0.192c-1.091-13.195-12.126-23.569-25.603-23.569c-11.701,0-21.559,7.824-24.672,18.52
					c-3.326-4.555-8.691-7.526-14.763-7.526c-10.1,0-18.288,8.188-18.288,18.288c0,0.21,0.025,0.415,0.031,0.623
					c-3.309-3.442-7.951-5.592-13.103-5.592c-10.046,0-18.189,8.144-18.189,18.189c0,5.033,2.045,9.588,5.349,12.881l-3.138,0.208
					C460.689,293.227,452.719,314.027,463.225,327.192z"/>
			</g>
		</g>
		<g>
			<g>
				<path style="fill:#1A1A1A;" d="M518.398,373.732c0.232,4.505,2.395,8.055,4.83,7.93c2.435-0.126,4.22-3.88,3.988-8.385
					c-0.232-4.505-2.395-8.055-4.83-7.93C519.951,365.473,518.166,369.227,518.398,373.732z"/>
			</g>
		</g>
		<g>
			<g>
				
					<ellipse transform="matrix(0.9944 -0.1059 0.1059 0.9944 -36.3913 61.6006)" style="fill:#1A1A1A;" cx="561.91" cy="373.505" rx="4.415" ry="8.168"/>
			</g>
		</g>
		<g>
			<g>
				<path style="fill:#1A1A1A;" d="M515.659,351.771c-2.792,0.513-5.636,1.045-8.134,2.391c-2.499,1.346-4.642,3.666-5.038,6.477
					c0.247-1.754,10.726-3.052,12.257-3.201c4.748-0.463,8.982,0.422,13.637,0.954c4.531,0.518,4.641-2.564,1.102-5.209
					C525.427,350.153,520.307,350.916,515.659,351.771z"/>
			</g>
		</g>
		<g>
			<g>
				<path style="fill:#1A1A1A;" d="M567.097,351.083c2.444,0.524,4.935,1.066,7.161,2.418c2.226,1.352,4.186,3.671,4.65,6.471
					c-0.29-1.747-9.438-3.088-10.773-3.243c-4.14-0.483-7.775,0.378-11.791,0.887c-3.909,0.495-4.137-2.574-1.181-5.19
					C558.553,349.427,563.028,350.21,567.097,351.083z"/>
			</g>
		</g>
		<g>
			<g>
				<path style="fill:#E03D3D;" d="M460.078,699.924c-1.187,1.207-2.374,2.414-3.601,3.641
					c-9.334,9.334-17.058,18.446-23.374,26.794c-35.122-55.016-55.6-116.007-55.6-116.007L460.078,699.924z"/>
			</g>
		</g>
		<g>
			<g>
				<g>
					<path style="fill:#E29F81;" d="M543.226,413.036c0.179,0,0.362-0.025,0.543-0.079l9.987-2.96
						c3.812-1.13,5.989-5.016,4.958-8.846c-2.159-8.022-5.319-20.105-7.819-32.381c-0.209-1.033-1.232-1.701-2.249-1.488
						c-1.033,0.21-1.701,1.217-1.489,2.25c2.521,12.379,5.701,24.54,7.873,32.61c0.488,1.816-0.547,3.66-2.358,4.197l-9.988,2.96
						c-1.009,0.299-1.586,1.361-1.286,2.371C541.642,412.499,542.402,413.036,543.226,413.036z"/>
				</g>
			</g>
		</g>
		<g>
			<g>
				<path style="fill:#FFFFFF;" d="M526.686,420.267c0,8.396,7.77,15.203,17.355,15.203s17.355-6.806,17.355-15.203
					s-8.219,0.897-17.804,0.897C534.007,421.164,526.686,411.87,526.686,420.267z"/>
			</g>
		</g>
		<g>
			<g>
				<path style="fill:#007EB5;" d="M501.783,567.631h137.054c0,0,14.365,46.718,20.029,92.136
					c2.348,18.828,7.552,75.521,7.552,75.521l25.677,356.459H382.459l26.736-321.716c0,0,12.535-31.723,47.274-66.462
					C491.21,668.829,513.866,638.621,501.783,567.631z"/>
			</g>
		</g>
		<g>
			<g>
				<path style="fill:#007EB5;" d="M692.094,1091.755H382.466l26.732-321.727c0,0,12.524-31.727,47.267-66.451
					c21.829-21.83,38.886-41.865,45.546-71.353l16.391,57.756l9.398-1.406l-24.234-64.656c2.386-15.669,2.016-33.965-1.776-56.294
					h137.045c0,0,14.374,46.73,20.035,92.147c2.349,18.833,7.548,75.515,7.548,75.515L692.094,1091.755z"/>
			</g>
		</g>
		<g>
			<g>
				<path style="fill:#006B91;" d="M518.401,689.98l-16.391-57.756c0.611-2.682,1.128-5.457,1.554-8.306l12.154,32.43
					c-3.496,0.777-5.55,1.332-5.55,1.332L518.401,689.98z"/>
			</g>
		</g>
		<g>
			<g>
				<path style="fill:#006B91;" d="M527.632,688.593l-9.231,1.388C521.638,689.388,524.709,688.926,527.632,688.593z"/>
			</g>
		</g>
		<g>
			<g>
				<path style="fill:#006B91;" d="M620.561,731.706c0,0-113.493,79.859-140.689,55.7c-17.521-15.59-33.231-35.886-46.769-57.048
					c6.316-8.348,14.041-17.461,23.374-26.794c1.227-1.227,2.414-2.434,3.601-3.641l33.392,34.599L620.561,731.706z"/>
			</g>
		</g>
		<g>
			<g>
				<path style="fill:#FFBC99;" d="M673.079,655.371c-15.164,4.969-154.682,34.604-154.682,34.604s-5.226-21.403-12.068-46.627
					c-8.066-29.831-18.382-65.009-24.937-76.473c-14.425-25.239-58.725-35.072-83.828-20.391
					c-15.859,9.274-23.472,27.656-23.472,46.4c0,10.905,2.583,21.946,7.613,31.387c4.018,7.537,15.391,24.363,28.925,43.576
					c27.172,38.576,57.607,79.227,60.029,81.96c6.699,7.557,14.918,13.363,19.918,15.402c9.984,4.108,21.599,6.721,31.689,3.111
					c34.74-12.476,142.221-51.702,159.259-63.241L673.079,655.371z"/>
			</g>
		</g>
		<g>
			<g>
				<path style="fill:#E29F81;" d="M518.397,689.975c12.663,1.159,46.515,2.549,64.8,15.388
					c21.486,15.086,55.698,19.069,55.698,19.069l-34.366-31.424l-64.749-10.021L518.397,689.975z"/>
			</g>
		</g>
		<g>
			<g>
				<path style="fill:#E03D3D;" d="M503.564,623.918c-0.426,2.849-0.944,5.624-1.554,8.306l-14.596-51.392L503.564,623.918z"/>
			</g>
		</g>
		<g>
			<g>
				<path style="fill:#FFBC99;" d="M734.388,714.142c-11.343,18.442-59.799,22.731-65.865,20.644
					c-20.111-6.917-56.479-19.134-79.135-31.217c-22.656-12.083-37.761-19.635-70.99-13.594l-8.232-32.293
					c0,0,49.013-13.02,73.18-3.957c24.167,9.063,75.219,5.407,75.219,5.407l-6.161-37.567
					c19.681-19.681,45.085-16.099,62.651-13.138C718.317,616.871,744.945,685.474,734.388,714.142z"/>
			</g>
		</g>
		<g>
			<g>
				<path style="fill:#E29F81;" d="M527.799,688.574c-0.055,0-0.111,0.018-0.167,0.018c-2.923,0.333-5.994,0.796-9.231,1.388
					l-8.232-32.3c0,0,2.054-0.555,5.55-1.332L527.799,688.574z"/>
			</g>
		</g>
		<g>
			<g>
				<path style="fill:#FF5C55;" d="M506.329,643.349c-28.32-14.002-80.868,15.512-95.7,24.499
					c-13.534-19.212-24.907-36.039-28.925-43.576c-5.03-9.44-7.613-20.481-7.613-31.387c0-18.744,7.613-37.126,23.472-46.4
					c25.103-14.681,69.404-4.849,83.828,20.391C487.947,578.34,498.263,613.518,506.329,643.349z"/>
			</g>
		</g>
		<g>
			<g>
				<path style="fill:#FFBC99;" d="M536.522,508.725c-49.844-1.51-76.125-32.836-76.125-32.836
					c8.126-4.667,17.534-9.602,25.328-12.699l69.919,1.733c8.277,3.051,16.026,6.162,23.427,9.455
					C579.811,482.035,579.584,510.024,536.522,508.725z"/>
			</g>
		</g>
		<g>
			<g>
				<g>
					<path style="fill:#007EB5;" d="M512.325,567.294l1.782,3.894l-7.804,6.374l-4.258-7.162
						c-16.494-35.941-32.454-72.849-29.915-96.897c0.392-3.714,2.683-6.962,5.94-8.789c2.561-1.437,4.954-2.756,7.842-3.94
						l-0.187,2.416c0,0-0.603,0.232-1.312,0.978C469.806,479.532,500.227,540.955,512.325,567.294z"/>
				</g>
			</g>
			<g>
				<g>
					<path style="fill:#007EB5;" d="M638.837,567.631l-9.303,1.163c-9.32-41.431-42.262-82.514-53.696-95.821
						c1.133,0,2.313,0.46,3.386,0.928c6.495,2.885,14.175,5.867,18.636,9.555C612.814,503.408,631.633,535.595,638.837,567.631z"/>
				</g>
			</g>
		</g>
	</g>
	<g>
		<g>
			<g>
				<path style="fill:#874A35;" d="M1127.857,366.225c0,0-50.863-14.866-65.905-5.586c-22.955,14.162-63.82,113.512-38.143,189.622
					l155.753,49.237c0,0,12.676-159.591-13.774-209.36C1156.947,373.502,1127.857,366.225,1127.857,366.225z"/>
			</g>
		</g>
		<g>
			<g>
				<g>
					<g>
						<path style="fill:#FFB454;" d="M918.908,1444.421v85.008H779.299v-0.127c0-14.726,9.558-22.776,24.606-29.976
							c17.376-8.314,49.6-16.441,54.523-54.905H918.908z"/>
					</g>
				</g>
			</g>
			<g>
				<g>
					<g>
						<rect x="779.299" y="1529.428" style="fill:#1A1A1A;" width="139.609" height="14.168"/>
					</g>
				</g>
			</g>
		</g>
		<g>
			<g>
				<g>
					<g>
						<path style="fill:#FFB454;" d="M1042.861,1529.057c25.572,0,59.189,0,84.761,0c-5.657-24.425-9.68-49.628-4.023-74.054
							c-25.572,0-51.143,0-76.715,0C1052.541,1479.429,1048.518,1504.632,1042.861,1529.057z"/>
					</g>
				</g>
			</g>
			<g>
				<g>
					<g>
						
							<rect x="1042.861" y="1529.057" transform="matrix(-1 -1.224647e-16 1.224647e-16 -1 2170.4819 3072.6536)" style="fill:#1A1A1A;" width="84.761" height="14.539"/>
					</g>
				</g>
			</g>
			<g>
				<g>
					<g>
						<path style="fill:#1A1A1A;" d="M1062.403,1510.138c12.593-12.593,33.082-12.593,45.675,0l1.789-1.789
							c-13.579-13.579-35.673-13.579-49.252,0L1062.403,1510.138z"/>
					</g>
				</g>
			</g>
		</g>
		<g>
			<g>
				<g>
					<path style="fill:#FFBC99;" d="M1103.816,580.847c0,0-87.237,1.53-75.829-16.49c9.386-14.828,18.506-71.202,18.506-71.202
						l64.166,20.895C1110.658,514.05,1096.766,544.705,1103.816,580.847z"/>
				</g>
			</g>
		</g>
		<g>
			<g>
				<path style="fill:#E29F81;" d="M1043.251,512.245l-4.255,18.843c0,0,35.201,15.581,67.991-6.699l3.671-10.34L1043.251,512.245z"
					/>
			</g>
		</g>
		<g>
			<g>
				<g>
					<path style="fill:#FFBC99;" d="M1137.548,468.567c-15.221,59.261-57.996,65.346-79.383,58.775
						c-22.392-6.88-34.053-44.081-23.492-85.198c10.561-41.117,42.151-68.534,70.559-61.237
						C1133.641,388.203,1148.109,427.45,1137.548,468.567z"/>
				</g>
			</g>
		</g>
		<g>
			<g>
				<g>
					
						<ellipse transform="matrix(0.5986 -0.8011 0.8011 0.5986 73.5809 1101.046)" style="fill:#FFBC99;" cx="1135.354" cy="477.108" rx="20.998" ry="13.077"/>
				</g>
			</g>
		</g>
		<g>
			<g>
				<path style="fill:#1A1A1A;" d="M1104.364,459.591c-0.768,4.122-3.195,7.126-5.423,6.712c-2.227-0.415-3.411-4.092-2.644-8.214
					c0.767-4.121,3.195-7.126,5.423-6.712C1103.948,451.792,1105.131,455.47,1104.364,459.591z"/>
			</g>
		</g>
		<g>
			<g>
				<path style="fill:#1A1A1A;" d="M1063.582,450.375c-0.587,4.151-2.882,7.259-5.125,6.942s-3.586-3.939-3-8.09
					c0.587-4.151,2.881-7.259,5.125-6.942C1062.825,442.601,1064.168,446.223,1063.582,450.375z"/>
			</g>
		</g>
		<g>
			<g>
				<path style="fill:#6B3425;" d="M1108.764,440.78c2.451,0.975,4.946,1.976,6.979,3.657c2.033,1.681,3.565,4.184,3.415,6.818
					c0.094-1.643-9.221-4.729-10.59-5.144c-4.243-1.284-8.263-1.247-12.602-1.607c-4.224-0.35-3.764-3.18-0.058-4.947
					C1100.156,437.531,1104.683,439.156,1108.764,440.78z"/>
			</g>
		</g>
		<g>
			<g>
				<path style="fill:#6B3425;" d="M1060.434,428.418c-2.305-0.292-4.656-0.582-7.024-0.081c-2.368,0.501-4.799,1.933-6.068,4.245
					c0.791-1.443,9.226,0.193,10.445,0.467c3.779,0.849,6.702,2.722,10.068,4.402c3.276,1.636,4.42-0.986,2.631-4.189
					C1068.436,429.592,1064.271,428.903,1060.434,428.418z"/>
			</g>
		</g>
		<g>
			<g>
				<g>
					<path style="fill:#E29F81;" d="M1075.107,485.436c-0.162-0.035-0.324-0.093-0.478-0.178l-8.498-4.636
						c-3.244-1.769-4.464-5.725-2.781-9.004c3.525-6.869,8.751-17.233,13.415-27.899c0.391-0.898,1.451-1.305,2.334-0.914
						c0.898,0.392,1.308,1.437,0.915,2.335c-4.703,10.757-9.962,21.187-13.509,28.097c-0.798,1.555-0.217,3.432,1.325,4.273
						l8.499,4.636c0.859,0.469,1.176,1.546,0.707,2.405C1076.651,485.257,1075.856,485.596,1075.107,485.436z"/>
				</g>
			</g>
		</g>
		<g>
			<g>
				<path style="fill:#FFFFFF;" d="M1087.038,496.673c-1.713,7.612-10.146,12.199-18.837,10.243
					c-8.69-1.955-14.347-9.712-12.634-17.324c1.713-7.613,7.269,2.49,15.959,4.445
					C1080.217,495.992,1088.751,489.06,1087.038,496.673z"/>
			</g>
		</g>
		<g>
			<g>
				<path style="fill:#FFBC99;" d="M1269.523,724.586c-0.583-4.345-2.052-8.589-4.224-12.411c0,0-30.455-57.873-40.332-74.307
					l-63.445,30.214c0,0,50.189,56.807,54.654,62.962c0,0-43.128,62.057-64.551,88.207c-1.328,1.609-2.555,3.098-3.701,4.405
					l25.688,21.141c0.362-0.261,0.744-0.543,1.147-0.865c22.369-17.018,88.791-94.604,88.791-94.604
					C1268.578,742.267,1270.79,733.255,1269.523,724.586z"/>
			</g>
		</g>
		<g>
			<g>
				<polygon style="fill:#36C6FF;" points="891.209,1121.2 843.581,1475.227 922.827,1475.428 1021.055,995.08 1048.243,1475.227 
					1121.919,1475.227 1147.931,995.08 995.094,946.716 				"/>
			</g>
		</g>
		<g>
			<g>
				<path style="fill:#FF5C55;" d="M1224.232,637.866c-7.552,25.677-33.67,33.229-48.333,33.229c-8.827,0-15.104-3.021-15.104-3.021
					c-21.146,25.677-36.25,138.959-36.25,138.959l-188.022-59.475l9.792-93.077l-46.823-25.677c0,0,14.075-25.982,19.369-34.398
					c14.6-23.211,30.475-41.123,55.839-47.047c6.704-1.566,28.301-7.851,28.301-7.851l8.844-1.243l20.171,3.1l6.021-1.44
					l64.363,7.862l4.835-1.588l10.482,4.244l2.749,1.118l16.841,6.827c18.775,7.612,35.888,18.472,50.599,31.93
					C1202.633,603.776,1214.973,619.831,1224.232,637.866z"/>
			</g>
		</g>
		<g>
			<g>
				<path style="fill:#FFBC99;" d="M1118.447,550.443c0,0-6.011,45.887-52.835,48.907c-46.823,3.021-61.414-41.703-55.327-60.764
					l27.718-3.429l69.961,11.041L1118.447,550.443z"/>
			</g>
		</g>
		<g>
			<g>
				<path style="fill:#007EB5;" d="M963.291,643.872l140.991,10.955c0,0,19.482,58.559,27.163,113.462l-6.171,38.744
					c0,0,21.649,45.816,37.761,146.511c16.111,100.695,18.125,191.823,18.125,191.823s-207.431,15.104-299.063-9.063
					c0,0,21.145-133.421,34.739-201.893c13.594-68.472,26.822-140.673,24.545-164.38c-2.277-23.707,4.284-78.79,4.284-78.79
					L963.291,643.872z"/>
			</g>
		</g>
		<g>
			<g>
				<path style="fill:#FFBC99;" d="M1173.611,844.797c-15.871,18.869-27.579,12.452-27.579,12.452
					c-5.652-2.635-17.36,13.598-23.032,6.055c-5.652-7.564,17.38-18.124,15.871-21.906c-1.509-3.782-21.906,8.308-31.34,0
					c-9.454-8.308,21.906-14.725,21.906-14.725c-1.891-8.69-31.461,7.161-31.36,0c0.141-9.997,23.415-15.489,23.415-15.489
					c-1.006-8.187-20.88-4.144-20.136-10.199c0.805-6.417,14-7.262,18.245-6.035c7.121,2.032,21.021,26.935,28.323,28.705
					L1173.611,844.797z"/>
			</g>
		</g>
		<g>
			<g>
				<polygon style="fill:#FFBC99;" points="910.034,634.584 902.235,687.971 942.895,765.015 946.315,654.48 				"/>
			</g>
		</g>
		<g>
			<g>
				<path style="fill:#FFBC99;" d="M929.327,788.211c-19.251,9.293-49.082-21.101-55.781-41.418l-28.866-90.259l-4.848-15.127
					l-0.342-1.066l31.159-13.779l0.503,0.966l5.974,11.426l65.778,126.065C942.905,765.018,944.393,780.97,929.327,788.211z"/>
			</g>
		</g>
		<g>
			<g>
				<polygon style="fill:#E29F81;" points="902.235,687.971 931.436,743.302 904.269,674.045 				"/>
			</g>
		</g>
		<g>
			<g>
				<path style="fill:#FFBC99;" d="M871.152,627.527l-31.32,13.88l-5.612,2.474l-15.449-6.638l-14.443-29.188
					c-1.489-3.037-0.945-6.658,1.388-9.112l15.569-16.394c3.037-3.198,7.825-4.003,11.748-1.991l21.524,11.064
					c3.762,1.931,6.638,5.25,8.026,9.233L871.152,627.527z"/>
			</g>
		</g>
		<g>
			<g>
				<path style="fill:#36C6FF;" d="M880.677,643.872l-36.46,18.615l-4.385-21.08l-5.612,2.474l-15.449-6.638l-14.443-29.188
					c-1.489-3.037-0.945-6.658,1.388-9.112l15.569-16.394c3.037-3.198,7.825-4.003,11.748-1.991l21.524,11.064
					c3.762,1.931,6.638,5.25,8.026,9.233l8.569,26.673L880.677,643.872z"/>
			</g>
		</g>
		<g>
			<g>
				<polygon style="fill:#007EB5;" points="848.265,621.566 813.218,621.566 815.185,603.417 829.372,589.903 854.182,606.744 				
					"/>
			</g>
		</g>
		<g>
			<g>
				<g>
					<path style="fill:#7AB239;" d="M819.022,739.601c0,4.877,1.91,9.595,4.736,13.91c8.077,12.316,23.636,21.343,23.636,21.343
						s16.266-18.945,14.753-40.32c-1.498-21.157-28.628-131.644-29.192-134.031c-0.008-0.025-0.78-1.757-0.78-1.757
						S819.022,720.8,819.022,739.601z"/>
				</g>
			</g>
			<g>
				<g>
					<path style="fill:#618E28;" d="M819.022,739.601c0,4.877,1.91,9.595,4.736,13.91l0.023,0.028c0,0,15.291-3.95,20.965-15.536
						c5.618-11.47-11.122-133.211-11.471-135.826c-0.008-0.025-1.541-4.097-1.541-4.097S819.022,720.8,819.022,739.601z"/>
				</g>
			</g>
			<g>
				<g>
					<path style="fill:#7AB239;" d="M833.275,602.177c2.046,25.357,8.292,105.308,7.524,127.252
						c-0.065,1.867-0.745,3.677-1.994,5.141c-15.272,17.902-58.353,34.042-66.691,54.813c0,0-3.65-110.222,44.271-190.664
						c1.583-2.658,4.591-4.313,7.863-4.313l0,0C828.985,594.405,832.922,597.792,833.275,602.177z"/>
				</g>
			</g>
		</g>
		<g>
			<g>
				<path style="fill:#36C6FF;" d="M854.182,606.744c0,0-29.981-15.099-30.04-3.327c-0.055,11.064,30.04,18.148,30.04,18.148
					V606.744z"/>
			</g>
		</g>
		<g>
			<g>
				<g>
					<path style="fill:#007EB5;" d="M1015.686,536.226l14.447-0.93c0.65-0.042,0.973,0.778,0.464,1.184
						c-1.713,1.365-3.637,3.021-4.965,4.628c-11.479,13.866-19.001,32.112-25.949,48.545c-9.531,22.551-18.14,45.524-27.172,68.286
						c-3.202,8.051-16.343,4.516-13.111-3.61c11.193-28.2,21.493-56.973,34.302-84.478c4.108-8.804,9.527-20.5,15.44-29.876
						C1010.564,537.718,1013.02,536.328,1015.686,536.226z"/>
				</g>
			</g>
			<g>
				<g>
					<path style="fill:#007EB5;" d="M1117.677,574.005c-4.29,30.722-10.165,61.293-15.27,91.879
						c-1.435,8.625-14.53,4.939-13.111-3.61c5.015-30.012,10.77-60.009,15.029-90.127c1.103-7.809,2.296-18.578-0.498-26.568
						c0,0,2.398-0.184,5.75,0.654c4.595,1.149,8.87,4.209,8.87,4.209C1119.384,558.266,1118.734,566.438,1117.677,574.005z"/>
				</g>
			</g>
		</g>
		<g>
			<g>
				<path style="fill:#874A35;" d="M1080.163,394.341c0,0-9.98-12.069-21.998,3.906c0,0-3.702-17.156-2.904-18.516
					c0.798-1.361,63.907-4.93,63.907-4.93l27.428,31.642l-1.778,52.397l-9.464,1.487
					C1135.354,460.327,1111.987,447.276,1080.163,394.341z"/>
			</g>
		</g>
		<g>
			<g>
				<path style="fill:#874A35;" d="M1086.458,394.519c-2.266,14.329,1.853,29.767,11.198,41.259
					c4.749,5.737,10.12,11.094,16.433,15.109c6.278,4.031,13.682,6.466,21.265,6.446c-7.568,0.376-15.205-1.723-21.806-5.543
					c-6.643-3.807-12.361-9.002-17.493-14.646c-10.272-11.513-15.488-27.523-13.77-43.183L1086.458,394.519z"/>
			</g>
		</g>
		<g>
			<g>
				<path style="fill:#36C6FF;" d="M1172.622,847.634c-15.871,18.869-26.589,9.615-26.589,9.615
					c-5.652-2.635-17.36,13.598-23.032,6.055c-5.652-7.564,17.38-18.124,15.871-21.906c-1.509-3.782-21.906,8.308-31.34,0
					c-9.454-8.308,21.906-14.725,21.906-14.725c-1.891-8.69-31.461,7.161-31.36,0c0.141-9.997,23.415-15.489,23.415-15.489
					c-1.006-8.187-20.88-4.144-20.136-10.199c0.805-6.417,14-7.262,18.245-6.035c7.121,2.032,21.021,25.939,28.323,27.709
					c1.147-1.307,6.327-9.977,6.327-9.977l22.52,29.652L1172.622,847.634z"/>
			</g>
		</g>
	</g>
	<g>
		<g>
			<g>
				<g>
					<path style="fill:#1A1A1A;" d="M614.438,1618.926c-23.234,0.002-52.843-5.754-89.079-17.249
						c-53.944-17.113-103.456-40.745-105.538-41.742l16.653-34.752c0.488,0.235,49.448,23.586,100.857,39.862
						c71.707,22.702,97.31,15.568,100.829,8.623c26.153-51.594-8.764-116.82-42.659-162.451
						c-38.892-52.358-85.235-91.298-85.699-91.685l24.704-29.575c8.338,6.964,203.453,172.055,138.027,301.135
						C663.122,1609.658,643.913,1618.924,614.438,1618.926z"/>
				</g>
			</g>
		</g>
		<g>
			<g>
				<g>
					<circle style="fill:#1E2021;" cx="180.367" cy="1591.051" r="27.938"/>
				</g>
			</g>
		</g>
		<g>
			<g>
				<g>
					<circle style="fill:#1E2021;" cx="272.722" cy="1618.989" r="27.938"/>
				</g>
			</g>
		</g>
		<g>
			<g>
				<g>
					<circle style="fill:#1E2021;" cx="436.947" cy="1615.328" r="27.938"/>
				</g>
			</g>
		</g>
		<g>
			<g>
				<g>
					<rect x="186.695" y="1557.637" style="fill:#1E2021;" width="21.506" height="31.09"/>
				</g>
			</g>
		</g>
		<g>
			<g>
				<g>
					<rect x="268.868" y="1574.673" style="fill:#1E2021;" width="28.902" height="34.361"/>
				</g>
			</g>
		</g>
		<g>
			<g>
				<g>
					<circle style="fill:#1E2021;" cx="530.766" cy="1591.051" r="27.938"/>
				</g>
			</g>
		</g>
		<g>
			<g>
				<g>
					<path style="fill:#999999;" d="M537.335,1163.796v355.528H229.052v-355.528c0-1.195,0.019-2.37,0.077-3.565
						c0,0,0-0.019,0-0.038c0.983-23.102,11.426-43.757,27.533-58.188c9.634-8.651,21.31-15.087,34.2-18.478
						c6.763-1.792,13.873-2.736,21.195-2.736H454.33C500.168,1080.79,537.335,1117.938,537.335,1163.796z"/>
				</g>
			</g>
		</g>
		<g>
			<g>
				<path style="fill:#FFB454;" d="M537.335,1163.796v139.421l-101.849,6.744l-137.726-47.534l-68.709,0.79v-99.422
					c0-1.195,0.019-2.37,0.077-3.565c0,0,0-0.019,0-0.038c0.983-23.102,11.426-43.757,27.533-58.188
					c9.634-8.651,21.31-15.087,34.2-18.478c6.763-1.792,13.873-2.736,21.195-2.736H454.33
					C500.168,1080.79,537.335,1117.938,537.335,1163.796z"/>
			</g>
		</g>
		<g>
			<g>
				<g>
					<path style="fill:#333333;" d="M537.332,1262.555v81.406c-16.532,13.275-36.416,22.37-57.341,25.703
						c-34.393,5.51-70.963-4.566-97.687-26.898c-24.22-20.231-42.062-44.316-72.331-53.256c-17.823-5.26-61.079-6.551-79.614-5.26
						c-0.443,0.039-0.886,0.058-1.31,0.077v-60.674c4.682,0.058,9.345,0.135,14.027,0.212c37.206,0.578,80.828-2.351,116.03,9.769
						c23.95,8.247,40.327,25.183,64.624,32.331C460.685,1276.794,499.644,1272.536,537.332,1262.555z"/>
				</g>
			</g>
		</g>
		<g>
			<g>
				<g>
					<path style="fill:#333333;" d="M537.332,1163.789v31.387c-39.287,6.455-79.576,6.474-119.421,4.547
						c-25.453-1.233-51.252-3.333-75.067-12.389c-23.815-9.036-45.703-25.973-55.298-49.557c-7.052-17.36-5.973-38.401,3.314-54.258
						c6.763-1.792,13.873-2.736,21.194-2.736h142.273C500.164,1080.783,537.332,1117.932,537.332,1163.789z"/>
				</g>
			</g>
		</g>
		<g>
			<g>
				<g>
					
						<ellipse transform="matrix(0.7869 -0.6171 0.6171 0.7869 -591.2037 542.3942)" style="fill:#FFB454;" cx="489.71" cy="1127.179" rx="26.285" ry="32.434"/>
				</g>
			</g>
		</g>
		<g>
			<g>
				<g>
					
						<ellipse transform="matrix(0.7869 -0.6171 0.6171 0.7869 -589.0942 541.6639)" style="fill:#333333;" cx="489.71" cy="1123.762" rx="19.894" ry="24.547"/>
				</g>
			</g>
		</g>
		<g>
			<g>
				<g>
					<polygon style="fill:#666666;" points="477.673,1104.511 495.486,1145.455 503.675,1142.083 485.977,1102.07 					"/>
				</g>
			</g>
		</g>
		<g>
			<g>
				<g>
					<g>
						<path style="fill:#4D4D4D;" d="M655.347,1629.394l-28.002,23.002c-32.004-73.294-64.387-151.074-90.013-214.272
							c-25.607-63.121-48.304-120.77-68.478-172.177c-28.054-71.348-52.659-133.968-75.028-185.163
							c-39.634-90.751-72.215-145.645-104.373-149.787c-6.936-0.906-11.811,0.713-16.3,5.414
							c-22.139,23.102-22.774,99.248-16.493,165.587c-16.108,14.432-26.551,35.087-27.534,58.189
							c-2.408-15.414-7.881-54.046-9.846-96.897c-3.564-77.553,5.857-126.917,28.825-150.866
							c12.119-12.659,27.958-18.131,45.78-15.838c50.154,6.493,87.707,66.898,137.822,184.199
							c20.482,47.919,43.044,105.356,69.422,172.466c11.272,28.67,23.314,59.325,36.204,91.772
							C570.549,1428.643,609.432,1524.269,655.347,1629.394z"/>
					</g>
				</g>
			</g>
		</g>
		<g>
			<g>
				<g>
					<path style="fill:#FFB454;" d="M229.048,1445.579c0,0-42.389,26.012-42.389,116.57c0,0,64.547,28.902,211.945,28.902
						c119.477,0,171.483-25.048,171.483-25.048s-8.67-56.84-32.755-75.144c0,0-4.817,18.304-141.618,18.304
						S229.048,1485.078,229.048,1445.579z"/>
				</g>
			</g>
		</g>
		<g>
			<g>
				<g>
					<path style="fill:#4D4D4D;" d="M833.091,1706.342l-301.54,19.904l-23.449-3.854c0,0-8.169-45.279,13.487-50.096
						c4.027-0.886,86.743-3.237,100.52-6.975c0,0-5.318-27.476,19.345-35.626c18.612-6.147,40.038,15.067,49.402,25.819
						c3.025,3.468,4.798,5.857,4.798,5.857h100.828l29.538,9.634l0.019,0.019C826.54,1671.603,835.288,1682.296,833.091,1706.342z"
						/>
				</g>
			</g>
		</g>
		<g>
			<g>
				<g>
					<path style="fill:#333333;" d="M833.091,1706.342l-301.54,19.904c0,0-3.68-41.426,10.116-44.797
						c18.536-4.528,91.233-2.273,98.747-4.027c10.597-2.466,12.004-23.275,34.2-26.32c5.164-0.713,10.828,1.272,16.242,4.412
						c2.909,1.696,5.761,3.719,8.42,5.857c9.248,7.399,16.281,16.05,16.281,16.05s96.666-6.243,110.462-6.416l0.019,0.019
						C826.54,1671.603,835.288,1682.296,833.091,1706.342z"/>
				</g>
			</g>
		</g>
	</g>
	<g>
		<g>
			<g>
				<path style="fill:#36C6FF;" d="M1367.308,1604.26c-4.513,8.923-23.927,2.639-30.16,0.838
					c-10.388-3.003-19.247,0.221-27.686,5.846c-7.725,5.149-14.753,6.474-24.267,4.601c-9.699-1.909-17.798-3.302-23.467,5.814
					c-2.195,3.529-1.996,7.076-2.994,10.523c-1.403,4.85-3.97,8.022-2.578,14.17c2.614,11.546,12.976,12.88,18.13,23.282
					c4.489,9.059,8.001,20.271,19.265,22.812c7.801,1.76,15.065-1.738,22.463,1.321c4.082,1.688,8.135,5.868,13.353,2.769
					c4.906-2.915,4.031-7.93,11.47-9.716c9.403-2.258,17.822,0.984,26.473,2.258c4.737,0.698,13.195,1.284,17.594-0.149
					c4.551-1.483,7.897-6.36,12.373-8.271c16.491-7.041,36.476,5.587,54.043,3.79c10.566-1.081,17.282-8.159,26.728-11.429
					c11.112-3.847,22.416,0.055,33.816-1.343c8.341-1.023,16.415-3.027,24.267-5.377c11.481-3.436,21.682-0.999,32.355,1.954
					c16.847,4.661,31.14,2.101,45.55-6.029c7.293-4.114,5.918-8.284,2.226-16.106c-5.002-10.597-11.745-9.279-21.342-15.428
					c-15.169-9.718-4.452-36.746-25.714-41.859c-7.016-1.688-15.688-1.382-22.862-2.239c-2.961-0.354-6.11,0.368-9.029-0.136
					c-2.905-0.502-6.769-3.73-9.764-2.447c-1.297,0.556-3.08,5.7-4.499,7.013c-6.952,6.432-26.361,9.109-34.603,7.556
					c-3.76-0.709-8.138-4.222-12.694-4.647c-8.694-0.811-13.552,4.096-20.247,7.213c-5.214,2.427-17.437,4.76-23.102,3.432
					c-4.83-1.133-8.156-5.325-12.325-7.753c-8.92-5.196-12.632,1.165-21.244,4.755c-6.453,2.69-15.655,4.244-22.583,4.937
					C1370.84,1606.756,1369.008,1605.765,1367.308,1604.26z"/>
			</g>
		</g>
		<g>
			<g>
				<path style="fill:#1A1A1A;" d="M1338.389,306.163c0.187,4.905,0.887,9.784,2.071,14.558c1.468,5.919,3.351,12.202,7.743,16.661
					c-0.106-5.549,4.11-9.557,7.016-13.829c1.711-2.514,3.031-5.271,4.29-8.04c2.214-4.87,4.26-9.816,6.134-14.827
					c1.072-2.868,2.083-6.099,0.864-8.908c-0.799-1.84-2.428-3.163-3.999-4.411c-4.537-3.606-12.635-18.301-18.439-12.691
					c-4.17,4.031-5.291,19.363-5.609,24.73C1338.326,301.658,1338.303,303.913,1338.389,306.163z"/>
			</g>
		</g>
		<g>
			<g>
				<g>
					<path style="fill:#FFB454;" d="M1455.251,1429.794v98.293h-151.249v-0.146c0-17.028,11.052-26.336,28.452-34.661
						c20.091-9.613,47.172-19.011,52.865-63.486H1455.251z"/>
				</g>
			</g>
		</g>
		<g>
			<g>
				<g>
					<rect x="1304.002" y="1528.087" style="fill:#1A1A1A;" width="151.249" height="16.382"/>
				</g>
			</g>
		</g>
		<g>
			<g>
				<g>
					<path style="fill:#FFB454;" d="M1513.213,1527.659c-33.102,0-66.204,0-99.306,0c7.323-31.618,7.323-64.243,0-95.862
						c33.102,0,66.204,0,99.306,0C1505.889,1463.416,1505.889,1496.041,1513.213,1527.659z"/>
				</g>
			</g>
		</g>
		<g>
			<g>
				<g>
					<rect x="1413.906" y="1527.659" style="fill:#1A1A1A;" width="99.306" height="18.821"/>
				</g>
			</g>
		</g>
		<g>
			<g>
				<g>
					<path style="fill:#AA684B;" d="M1465.029,468.169c0,0-95.501,36.162-90.604,13.313c4.029-18.801-2.236-81.44-2.236-81.44
						l81.137-23.742C1453.326,376.301,1438.761,438.786,1465.029,468.169z"/>
				</g>
			</g>
		</g>
		<g>
			<g>
				<g>
					<path style="fill:#FF9800;" d="M1339.789,502.789"/>
				</g>
			</g>
		</g>
		<g>
			<g>
				<path style="fill:#AA684B;" d="M1282.294,651.334l13.086,146.697c0,0-14.854,92.899-27.196,122.02
					c-8.11,19.136-32.726,71.448,12.414,92.986l31.389-11.527l0.013-351.042L1282.294,651.334z"/>
			</g>
		</g>
		<g>
			<g>
				<g>
					<path style="fill:#1A1A1A;" d="M1493.123,1499.258c-16.301-16.301-42.825-16.301-59.126,0l-2.315-2.315
						c17.578-17.578,46.178-17.578,63.756,0L1493.123,1499.258z"/>
				</g>
			</g>
		</g>
		<g>
			<g>
				<g>
					<path style="fill:none;stroke:#E9B585;stroke-width:1.7826;stroke-linecap:round;stroke-miterlimit:10;" d="M1369.409,553.162"
						/>
				</g>
			</g>
		</g>
		<g>
			<g>
				<path style="fill:#874A35;" d="M1372.992,407.748l2.607,39.98c0,0,50.979,1.269,65.972-32.336
					c4.068-9.117,6.713-26.558,6.713-26.558L1372.992,407.748z"/>
			</g>
		</g>
		<g>
			<g>
				<g>
					<path style="fill:#AA684B;" d="M1456.464,349.329c0,66.994-35.499,84.385-67.614,84.385c-42.831,0-48.686-37.902-48.686-84.385
						c0-46.483,26.035-84.164,58.15-84.164C1430.429,265.165,1456.464,302.847,1456.464,349.329z"/>
				</g>
			</g>
		</g>
		<g>
			<g>
				<path style="fill:#FFB454;" d="M1275.998,655.282l30.88,12.249l229.3,267.811c0,0-23.86-63.479-13.101-175.676
					c0.968-10.036,22.612-91.501,26.761-98.709c21.364-37.071,27.665-84.533,19.98-107.587
					c-12.035-36.134-49.721-71.976-86.992-93.355c-3.412-1.967-6.824-3.796-10.205-5.487c-4.811-2.444-9.575-4.596-14.232-6.44
					l-5.764,0.061l-58.927,0.63c0,0-7.791,0.077-7.792,0.077c-5.694,0.508-5.522,3.383-10.686,5.755
					c-13.641,6.266-29.068,22.383-40.255,32.315C1281.261,534.6,1275.998,655.282,1275.998,655.282z"/>
			</g>
		</g>
		<g>
			<g>
				<path style="fill:#1A1A1A;" d="M1411.339,344.765c-0.237,4.584-2.437,8.197-4.915,8.069c-2.478-0.128-4.294-3.948-4.058-8.532
					c0.237-4.584,2.437-8.197,4.915-8.069C1409.758,336.36,1411.575,340.18,1411.339,344.765z"/>
			</g>
		</g>
		<g>
			<g>
				<path style="fill:#1A1A1A;" d="M1371.53,345.009c-0.486,4.565-2.88,8.052-5.347,7.789s-4.073-4.176-3.587-8.741
					c0.486-4.565,2.88-8.052,5.347-7.789C1370.41,336.531,1372.016,340.444,1371.53,345.009z"/>
			</g>
		</g>
		<g>
			<g>
				<path style="fill:#1A1A1A;" d="M1414.126,322.418c2.841,0.523,5.734,1.063,8.277,2.433c2.543,1.37,4.724,3.73,5.126,6.591
					c-0.251-1.785-10.914-3.105-12.473-3.257c-4.831-0.471-9.14,0.429-13.876,0.971c-4.611,0.527-4.723-2.609-1.121-5.3
					C1404.187,320.771,1409.396,321.548,1414.126,322.418z"/>
			</g>
		</g>
		<g>
			<g>
				<path style="fill:#1A1A1A;" d="M1361.784,321.717c-2.487,0.533-5.021,1.085-7.287,2.461c-2.265,1.376-4.259,3.736-4.732,6.585
					c0.295-1.778,9.603-3.142,10.962-3.301c4.212-0.491,7.912,0.385,11.998,0.902c3.977,0.504,4.21-2.619,1.201-5.281
					C1370.478,320.032,1365.926,320.829,1361.784,321.717z"/>
			</g>
		</g>
		<g>
			<g>
				<g>
					<path style="fill:#874A35;" d="M1386.075,377.074c-0.182,0-0.368-0.026-0.552-0.081l-10.162-3.012
						c-3.879-1.149-6.094-5.104-5.045-9.002c2.197-8.163,5.412-20.459,7.956-32.95c0.213-1.051,1.254-1.73,2.289-1.515
						c1.051,0.214,1.73,1.238,1.516,2.29c-2.565,12.596-5.801,24.971-8.012,33.183c-0.497,1.848,0.556,3.725,2.399,4.271
						l10.163,3.012c1.027,0.305,1.614,1.385,1.309,2.413C1387.687,376.528,1386.914,377.074,1386.075,377.074z"/>
				</g>
			</g>
		</g>
		<g>
			<g>
				<polygon style="fill:#25AED8;" points="1305.853,1081.372 1379.627,1454.407 1470.764,1454.407 1414.589,1095.204 				"/>
			</g>
		</g>
		<g>
			<g>
				<polygon style="fill:#36C6FF;" points="1379.627,1062.16 1414.589,1463.845 1516.371,1463.845 1516.371,1110.574 				"/>
			</g>
		</g>
		<g>
			<g>
				<path style="fill:#007EB5;" d="M1421.777,561.264l-112.027-12.671c-10.935,54.681-10.822,148.816-17.11,243.971
					c-7.97,120.606-20.938,245.451-21.511,322.31l274.489,17.217l-22.542-372.425c0,0-15.882-11.813-51.232-47.164
					C1436.494,677.153,1419.979,616.461,1421.777,561.264z"/>
			</g>
		</g>
		<g>
			<g>
				<path style="fill:#AA684B;" d="M1590.22,610.741c-1.153-3.796-2.306-7.516-3.443-11.128
					c-7.178-22.808-136.851-32.399-125.354-5.133c4.288,10.144,65.015,108.646,65.015,108.646l-113.304,42.196l0.795,43.444
					c24.571-6.61,153.606-11.911,185.145-32.291c9.16-5.933,14.217-16.937,17.06-27.558c1.445-5.302,2.137-10.836,1.998-16.415
					C1618.039,709.075,1603.746,655.036,1590.22,610.741z"/>
			</g>
		</g>
		<g>
			<g>
				<g>
					<path style="fill:#007EB5;" d="M1385.906,448.857c-2.198,0.815-4.35,1.629-6.486,2.444c4.565-0.907,9.375-1.768,14.278-2.521
						L1385.906,448.857z"/>
				</g>
			</g>
		</g>
		<g>
			<g>
				<path style="fill:#FFB454;" d="M1590.22,610.741l-96.024,38.981c0,0-28.485-45.098-32.773-55.242
					c-11.496-27.266,7.915-69.163,35.289-80.383c17.291-7.101,36.856-1.906,52.011,9.667c8.822,6.747,16.153,15.646,20.687,25.544
					c3.612,7.9,10.19,27.496,17.368,50.305C1587.915,603.225,1589.068,606.944,1590.22,610.741z"/>
			</g>
		</g>
		<g>
			<g>
				<polygon style="fill:#FFFFFF;" points="1604.032,1650.513 1304.002,1675.411 1261.271,1627.292 1561.752,1602.356 				"/>
			</g>
		</g>
		<g>
			<g>
				<g>
					<path style="fill:#CBF4FF;" d="M1432.57,1633.099c-0.302,0.02-0.603,0.04-0.905,0.04c-5.532,0-10.239-4.245-10.702-9.877
						l-17.802-214.614l-60.387-727.523c-0.483-5.934,3.923-11.124,9.837-11.627c5.894-0.503,11.124,3.922,11.607,9.836
						l60.266,726.297l17.923,215.861C1442.889,1627.406,1438.484,1632.616,1432.57,1633.099z"/>
				</g>
			</g>
		</g>
		<g>
			<g>
				<path style="fill:#1A1A1A;" d="M1383.549,399.353c-7.16,0-14.318-2.725-19.77-8.176c-0.779-0.78-0.779-2.044,0-2.824
					c0.781-0.779,2.043-0.779,2.824,0c4.529,4.53,10.549,7.025,16.945,7.025c6.396,0,12.416-2.495,16.945-7.025
					c0.781-0.779,2.043-0.779,2.824,0c0.779,0.78,0.779,2.044,0,2.824C1397.867,396.627,1390.709,399.353,1383.549,399.353z"/>
			</g>
		</g>
		<g>
			<g>
				<path style="fill:#1A1A1A;" d="M1438.109,320.915c-0.249-4.85-0.83-11.619-1.676-16.401
					c-0.847-4.782-6.179-12.321-10.226-15.008c-9.448-6.272-20.399,0.463-30.027,2.169c-10.949,1.941-23.176,2.146-33.896-1.097
					c-10.564-3.196-18.75-19.996-30.268-13.935c-0.452-2.827,6.323-27.448,32.201-33.846c17.073-4.221,35.129-3.551,52.464-0.607
					c13.631,2.315,35.985,10.048,43.832,23.09c4.021,6.684,6.071,14.691,6.909,22.358c1.652,15.122,0.848,38.199-3.687,55.737
					c-2.214,8.565-7.122-9.634-17.18,3.883C1440.105,355.927,1438.655,331.558,1438.109,320.915z"/>
			</g>
		</g>
		<g>
			<g>
				<path style="fill:#AA684B;" d="M1472.621,454.528c0,0-45.049,35.91-96.093,24.685c-9.861-2.169-6.472-22.23-6.472-22.23
					l13.493-9.563l68.471-6.447l6.369,7.115L1472.621,454.528z"/>
			</g>
		</g>
		<g>
			<g>
				<path style="fill:#AA684B;" d="M1414.592,744.779c-11.271-1.025-43.227-23.321-58.597-21.784
					c-15.37,1.537-34.581,13.897-20.941,25.808c0,0-3.65,10.566,4.611,14.409c0,0-4.035,5.379-0.192,11.335
					c0,0-4.995,9.606,2.69,11.911c7.685,2.305,11.911,0.768,15.562,3.266c3.65,2.497,35.158,5.379,56.867-1.153V744.779z"/>
			</g>
		</g>
		<g>
			<g>
				<path style="fill:#007EB5;" d="M1309.75,548.592c0,0,23.277-73.744,65.912-95.582l-3.784,9.212c0,0-36.375,40.579-49.539,96.673
					L1309.75,548.592z"/>
			</g>
		</g>
		<g>
			<g>
				<path style="fill:#007EB5;" d="M1458.442,445.462l5.594,3.433c1.045,0.641,1.421,1.969,0.851,3.054
					c-6.067,11.536-37.634,73.35-48.266,130.208l-15.894,2.735c0,0,24.338-89.546,54.515-138.681
					C1455.913,445.116,1457.349,444.791,1458.442,445.462z"/>
			</g>
		</g>
		<g>
			<g>
				<g>
					
						<ellipse transform="matrix(0.3805 -0.9248 0.9248 0.3805 570.3593 1569.3464)" style="fill:#AA684B;" cx="1456.464" cy="358.985" rx="22.992" ry="14.319"/>
				</g>
			</g>
		</g>
		<g>
			<g>
				<path style="fill:#007EB5;" d="M1432.57,1633.099c-0.302,0.02-0.603,0.04-0.905,0.04c-5.532,0-10.239-4.245-10.702-9.877
					l-18.021-215.995l21.542-1.637l17.923,215.861C1442.889,1627.406,1438.484,1632.616,1432.57,1633.099z"/>
			</g>
		</g>
		<g>
			<g>
				<polygon style="fill:#007EB5;" points="1339.992,1624.267 1367.308,1664.607 1551.031,1649.185 1514.762,1609.192 				"/>
			</g>
		</g>
		<g>
			<g>
				<polygon style="fill:#DD8D36;" points="1468.452,607.562 1504.789,711.188 1526.438,703.126 				"/>
			</g>
		</g>
	</g>
	<g>
		<g>
			<g>
				<polygon style="fill:#99E5FF;" points="1796.929,1532.483 1773.724,1476.453 1769.028,1509.208 				"/>
			</g>
		</g>
		<g>
			<g>
				<ellipse style="fill:#7AB239;" cx="1673.687" cy="1370.6" rx="113.961" ry="15.655"/>
			</g>
		</g>
		<g>
			<g>
				<path style="fill:#7AB239;" d="M1769.028,1367.848c-48.888,9.776-130.025,7.09-184.865-2.686
					c-6.024-1.074-24.437,5.438-24.437,5.438l26.529,217.309c0.901,7.236,6.518,11.421,12.906,12.619
					c38.965,7.306,112.825,7.306,149.051,0c6.371-1.285,12.005-5.383,12.906-12.619l26.529-217.309
					C1787.648,1370.6,1775.028,1366.648,1769.028,1367.848z"/>
			</g>
		</g>
		<g>
			<g>
				<g>
					<path style="fill:#FFFFFF;" d="M1788.846,1544.519c-2.418,0-4.826-0.898-6.601-2.673l-126.717-126.773
						c-3.383-3.384-3.171-8.673,0.474-11.813c3.643-3.141,9.34-2.945,12.723,0.44l126.717,126.773
						c3.383,3.384,3.171,8.674-0.474,11.813C1793.236,1543.78,1791.038,1544.519,1788.846,1544.519z"/>
				</g>
			</g>
		</g>
		<g>
			<g>
				<path style="fill:#618E28;" d="M1673.688,1380.475c-55.453,0-93.403-5.246-105.314-9.875
					c11.911-4.629,49.861-9.875,105.314-9.875c55.451,0,93.401,5.246,105.312,9.875
					C1767.089,1375.229,1729.139,1380.475,1673.688,1380.475z"/>
			</g>
		</g>
	</g>
</g>
</svg>
